<svg width="33" height="33" viewBox="0 0 33 33" fill="none" xmlns="http://www.w3.org/2000/svg">
<path d="M3.98792 10.6695L5.19792 8.5737C5.91292 7.33529 7.51633 6.89559 8.76666 7.61747C10.922 8.86184 12.6832 7.84638 12.6789 5.35122C12.6785 3.92202 13.852 2.74192 15.293 2.74835L18.0338 2.75884C19.2976 2.7423 20.3198 3.77697 20.3363 5.04081L20.3367 5.34268C20.329 7.83096 22.0913 8.84846 24.2543 7.60456L24.5159 7.45394C25.6187 6.83634 27.0258 7.20417 27.6434 8.30696L29.0228 10.6752C29.749 11.92 29.3138 13.5264 28.0757 14.2406C25.9127 15.4846 25.914 17.5175 28.0693 18.7619C29.3077 19.4769 29.7475 21.0803 29.0256 22.3305L27.8156 24.4263C27.1006 25.6648 25.4971 26.1045 24.2468 25.3826C22.0915 24.1383 20.3302 25.1537 20.3345 27.6488C20.3282 29.0899 19.1615 30.2581 17.7203 30.2518L14.9797 30.2412C13.7158 30.2578 12.6937 29.2231 12.6772 27.9592L12.6768 27.6574C12.6845 25.1691 10.9221 24.1516 8.75913 25.3956L8.49752 25.5461C7.39473 26.1638 5.98762 25.796 5.37003 24.6931L3.9906 22.3249C3.26448 21.08 3.69972 19.4737 4.93767 18.7594C7.10066 17.5156 7.09948 15.4826 4.94416 14.2383C3.69383 13.5164 3.27292 11.9079 3.98792 10.6695Z" stroke="#202818" stroke-width="2.0355" stroke-miterlimit="10" stroke-linecap="round" stroke-linejoin="round"/>
<path d="M20.9688 16.5C20.9688 14.032 18.9681 12.0312 16.5 12.0312C14.032 12.0312 12.0313 14.032 12.0313 16.5C12.0313 18.968 14.032 20.9688 16.5 20.9688C18.9681 20.9688 20.9688 18.968 20.9688 16.5Z" stroke="#202818" stroke-width="2.0355"/>
</svg>
