<svg width="24" height="24" viewBox="0 0 24 24" fill="none" xmlns="http://www.w3.org/2000/svg">
<path fill-rule="evenodd" clip-rule="evenodd" d="M6.6 10.4437V8.79999C6.6 5.81766 9.01766 3.39999 12 3.39999C14.9823 3.39999 17.4 5.81766 17.4 8.79999V10.4437C18.2918 10.5103 18.8726 10.6784 19.2971 11.1029C20 11.8059 20 12.9373 20 15.2C20 17.4627 20 18.5941 19.2971 19.2971C18.5941 20 17.4627 20 15.2 20H8.8C6.53726 20 5.40589 20 4.70294 19.2971C4 18.5941 4 17.4627 4 15.2C4 12.9373 4 11.8059 4.70294 11.1029C5.12745 10.6784 5.7082 10.5103 6.6 10.4437ZM7.8 8.79999C7.8 6.4804 9.6804 4.59999 12 4.59999C14.3196 4.59999 16.2 6.4804 16.2 8.79999V10.4029C15.8936 10.4 15.5612 10.4 15.2 10.4H8.8C8.43879 10.4 8.10641 10.4 7.8 10.4029V8.79999ZM13.6 15.2C13.6 16.0836 12.8837 16.8 12 16.8C11.1163 16.8 10.4 16.0836 10.4 15.2C10.4 14.3163 11.1163 13.6 12 13.6C12.8837 13.6 13.6 14.3163 13.6 15.2Z" fill="#8696A3"/>
</svg>
