<svg width="24" height="24" viewBox="0 0 24 24" fill="none" xmlns="http://www.w3.org/2000/svg">
<path fill-rule="evenodd" clip-rule="evenodd" d="M20 12C20 16.4183 16.4183 20 12 20C7.58172 20 4 16.4183 4 12C4 7.58172 7.58172 4 12 4C16.4183 4 20 7.58172 20 12ZM14.4 9.6C14.4 10.9255 13.3255 12 12 12C10.6745 12 9.6 10.9255 9.6 9.6C9.6 8.27452 10.6745 7.2 12 7.2C13.3255 7.2 14.4 8.27452 14.4 9.6ZM12 18.8C13.4272 18.8 14.7518 18.3603 15.8455 17.609C16.3286 17.2771 16.5351 16.645 16.2542 16.1306C15.672 15.0642 14.4722 14.4 11.9999 14.4C9.52775 14.4 8.32797 15.0642 7.74571 16.1305C7.46484 16.6449 7.67128 17.2771 8.15437 17.6089C9.24815 18.3603 10.5727 18.8 12 18.8Z" fill="#8696A3"/>
</svg>
