<svg width="33" height="33" viewBox="0 0 33 33" fill="none" xmlns="http://www.w3.org/2000/svg">
<path d="M20.9687 8.24999C20.9687 10.718 18.968 12.7187 16.5 12.7187C14.032 12.7187 12.0313 10.718 12.0313 8.24999C12.0313 5.78196 14.032 3.78124 16.5 3.78124C18.968 3.78124 20.9687 5.78196 20.9687 8.24999Z" stroke="#9D9D9D" stroke-width="2.04592"/>
<path d="M25.0937 23.375C25.0937 24.8539 24.2562 26.2902 22.7064 27.3971C21.1587 28.5027 18.9676 29.2187 16.4999 29.2187C14.0322 29.2187 11.8412 28.5027 10.2934 27.3971C8.74371 26.2902 7.90619 24.8539 7.90619 23.375C7.90619 21.896 8.74371 20.4597 10.2934 19.3528C11.8412 18.2472 14.0322 17.5312 16.4999 17.5312C18.9676 17.5312 21.1587 18.2472 22.7064 19.3528C24.2562 20.4597 25.0937 21.896 25.0937 23.375Z" stroke="#9D9D9D" stroke-width="2.04592"/>
</svg>
