<svg width="48" height="48" viewBox="0 0 48 48" fill="none" xmlns="http://www.w3.org/2000/svg">
<path fill-rule="evenodd" clip-rule="evenodd" d="M24 39C20.1834 39 17.562 38.9958 15.5577 38.7788C13.6095 38.5676 12.6032 38.1846 11.8855 37.6632C11.2912 37.2314 10.7686 36.7088 10.3369 36.1144C9.81544 35.3968 9.43234 34.3906 9.22128 32.4424C9.18704 32.1264 9.1581 31.7952 9.13364 31.4462C9.07712 30.6402 8.4193 30 7.6112 30C6.76206 30 6.07738 30.705 6.13414 31.5522C6.3251 34.4028 6.78796 36.3338 7.90982 37.8778C8.52662 38.7268 9.2732 39.4734 10.1221 40.0902C12.7508 42 16.5005 42 24 42C31.4994 42 35.2492 42 37.8778 40.0902C38.7268 39.4734 39.4734 38.7268 40.0902 37.8778C41.212 36.3338 41.675 34.4028 41.8658 31.5522C41.9226 30.705 41.238 30 40.3888 30C39.5808 30 38.9228 30.6402 38.8664 31.4462C38.842 31.7952 38.813 32.1264 38.7788 32.4424C38.5676 34.3906 38.1846 35.3968 37.6632 36.1144C37.2314 36.7088 36.7088 37.2314 36.1146 37.6632C35.3968 38.1846 34.3906 38.5676 32.4424 38.7788C30.438 38.9958 27.8166 39 24 39ZM7.6112 18C8.4193 18 9.07712 17.3598 9.13364 16.5537C9.1581 16.2049 9.18704 15.8736 9.22128 15.5577C9.43234 13.6095 9.81544 12.6032 10.3369 11.8855C10.7686 11.2912 11.2912 10.7686 11.8855 10.3369C12.6032 9.81545 13.6095 9.43235 15.5577 9.22129C17.562 9.00413 20.1834 9.00001 24 9.00001C27.8166 9.00001 30.438 9.00413 32.4424 9.22129C34.3906 9.43235 35.3968 9.81545 36.1146 10.3369C36.7088 10.7686 37.2314 11.2912 37.6632 11.8855C38.1846 12.6032 38.5676 13.6095 38.7788 15.5577C38.813 15.8736 38.842 16.2049 38.8664 16.5537C38.9228 17.3598 39.5808 18 40.3888 18C41.238 18 41.9226 17.2951 41.8658 16.4478C41.675 13.5972 41.212 11.6663 40.0902 10.1221C39.4734 9.27321 38.7268 8.52663 37.8778 7.90983C35.2492 6.00001 31.4994 6.00001 24 6.00001C16.5005 6.00001 12.7508 6.00001 10.1221 7.90983C9.2732 8.52663 8.52662 9.27321 7.90982 10.1221C6.78796 11.6663 6.3251 13.5972 6.13414 16.4478C6.07738 17.2951 6.76206 18 7.6112 18Z" fill="white"/>
<path d="M5.49997 24.4999H42.5" stroke="white" stroke-width="2.98364" stroke-linecap="round"/>
</svg>
