<svg width="33" height="33" viewBox="0 0 33 33" fill="none" xmlns="http://www.w3.org/2000/svg">
<path fill-rule="evenodd" clip-rule="evenodd" d="M14.1683 25.8006C13.4465 25.8006 12.8976 26.4734 13.2752 27.0885C13.9402 28.1718 15.1357 28.8944 16.5001 28.8944C17.8644 28.8944 19.06 28.1718 19.7251 27.0885C20.1026 26.4734 19.5537 25.8006 18.832 25.8006C18.3726 25.8006 17.9781 26.1031 17.6327 26.4059C17.3304 26.6712 16.9339 26.8319 16.5001 26.8319C16.0662 26.8319 15.6699 26.6712 15.3674 26.4059C15.0221 26.1031 14.6275 25.8006 14.1683 25.8006Z" fill="#202818"/>
<mask id="mask0_0_38" style="mask-type:alpha" maskUnits="userSpaceOnUse" x="4" y="2" width="25" height="23">
<path fill-rule="evenodd" clip-rule="evenodd" d="M26.8125 14.9188C26.8125 10.8098 24.773 6.96877 21.369 4.66722L19.5807 3.45802C17.7196 2.19967 15.2804 2.19967 13.4193 3.45802L11.631 4.66721C8.22705 6.96877 6.18751 10.8098 6.18751 14.9188V17.5504C5.34361 18.3057 4.81251 19.4033 4.81251 20.625C4.81251 22.9032 6.65934 24.75 8.93751 24.75H24.0625C26.3408 24.75 28.1875 22.9032 28.1875 20.625C28.1875 19.4033 27.6563 18.3057 26.8125 17.5504V14.9188Z" fill="white"/>
</mask>
<g mask="url(#mask0_0_38)">
<path d="M21.369 4.66722L20.2137 6.37581L21.369 4.66722ZM26.8125 14.9188H28.875H26.8125ZM19.5807 3.45802L20.736 1.74943L19.5807 3.45802ZM13.4193 3.45802L12.264 1.74943L13.4193 3.45802ZM11.6309 4.6672L12.7862 6.37581L11.6309 4.6672ZM6.18749 14.9188H8.24999H6.18749ZM6.18749 17.5504L7.563 19.0872L8.24999 18.4723V17.5504H6.18749ZM26.8125 17.5504H24.75V18.4723L25.4369 19.0872L26.8125 17.5504ZM20.2137 6.37581C23.0504 8.29375 24.75 11.4946 24.75 14.9188H28.875C28.875 10.125 26.4956 5.64376 22.5243 2.95862L20.2137 6.37581ZM18.4254 5.1666L20.2137 6.37581L22.5243 2.95862L20.736 1.74943L18.4254 5.1666ZM14.5746 5.1666C15.7377 4.38015 17.2623 4.38015 18.4254 5.1666L20.736 1.74943C18.1769 0.0192053 14.823 0.0192048 12.264 1.74943L14.5746 5.1666ZM12.7862 6.37581L14.5746 5.1666L12.264 1.74943L10.4757 2.95862L12.7862 6.37581ZM8.24999 14.9188C8.24999 11.4946 9.9496 8.29375 12.7862 6.37581L10.4757 2.95862C6.50444 5.64376 4.12499 10.125 4.12499 14.9188H8.24999ZM8.24999 17.5504V14.9188H4.12499V17.5504H8.24999ZM6.87499 20.625C6.87499 20.0144 7.13775 19.4678 7.563 19.0872L4.81198 16.0135C3.54941 17.1435 2.74999 18.7923 2.74999 20.625H6.87499ZM8.93749 22.6875C7.7984 22.6875 6.87499 21.7641 6.87499 20.625H2.74999C2.74999 24.0423 5.52023 26.8125 8.93749 26.8125V22.6875ZM24.0625 22.6875H8.93749V26.8125H24.0625V22.6875ZM26.125 20.625C26.125 21.7641 25.2015 22.6875 24.0625 22.6875V26.8125C27.4798 26.8125 30.25 24.0423 30.25 20.625H26.125ZM25.4369 19.0872C25.8622 19.4678 26.125 20.0144 26.125 20.625H30.25C30.25 18.7923 29.4506 17.1435 28.188 16.0135L25.4369 19.0872ZM24.75 14.9188V17.5504H28.875V14.9188H24.75Z" fill="#202818"/>
</g>
</svg>
