<svg width="24" height="24" viewBox="0 0 24 24" fill="none" xmlns="http://www.w3.org/2000/svg">
<path d="M20 11.7254C20 11.3457 19.7178 11.0319 19.3518 10.9823L19.25 10.9754L6.066 10.976L10.829 6.23249C11.1225 5.94022 11.1235 5.46535 10.8313 5.17183C10.5656 4.90499 10.149 4.87989 9.85489 5.09711L9.77061 5.16955L3.72061 11.1935C3.68192 11.2321 3.64832 11.2738 3.61979 11.3178C3.61174 11.331 3.60354 11.3446 3.59576 11.3584C3.58861 11.3703 3.58215 11.3826 3.57606 11.395C3.56759 11.4132 3.55932 11.4319 3.55181 11.451C3.5457 11.4657 3.54061 11.48 3.53596 11.4944C3.53043 11.5123 3.52506 11.5314 3.52045 11.5507C3.51701 11.5643 3.51429 11.5773 3.51192 11.5903C3.50859 11.6098 3.50575 11.6299 3.50372 11.6502C3.50197 11.6657 3.50092 11.6811 3.50034 11.6965C3.50019 11.7058 3.5 11.7156 3.5 11.7254L3.50038 11.7545C3.50095 11.7692 3.50196 11.7839 3.50339 11.7986L3.5 11.7254C3.5 11.7727 3.50438 11.819 3.51277 11.8639C3.51471 11.8747 3.51703 11.8857 3.51959 11.8966C3.52492 11.9192 3.53108 11.941 3.53817 11.9623C3.54165 11.9729 3.5457 11.9842 3.55003 11.9954C3.5588 12.018 3.56833 12.0395 3.5788 12.0604C3.58367 12.0703 3.58912 12.0806 3.59484 12.0908C3.60421 12.1075 3.61386 12.1233 3.62407 12.1387C3.63128 12.1497 3.63925 12.161 3.64758 12.1722L3.65407 12.1809C3.67428 12.2073 3.6962 12.2323 3.71967 12.2557L3.72057 12.2564L9.77057 18.2814C10.0641 18.5737 10.5389 18.5727 10.8312 18.2792C11.0969 18.0124 11.1203 17.5957 10.9018 17.3026L10.829 17.2186L6.068 12.476L19.25 12.4754C19.6642 12.4754 20 12.1396 20 11.7254Z" fill="white" fill-opacity="0.9"/>
</svg>
