<svg width="24" height="24" viewBox="0 0 24 24" fill="none" xmlns="http://www.w3.org/2000/svg">
<circle cx="9.60076" cy="7.2" r="3.2" fill="#8696A3"/>
<ellipse cx="9.60073" cy="16.0008" rx="5.6" ry="3.2" fill="#8696A3"/>
<path d="M19.1997 16.0004C19.1997 17.3259 17.5712 18.4003 15.583 18.4003C16.1688 17.7601 16.5715 16.9564 16.5715 16.0015C16.5715 15.0455 16.1678 14.241 15.581 13.6004C17.5692 13.6004 19.1997 14.6749 19.1997 16.0004Z" fill="#8696A3"/>
<path d="M16.7997 7.2006C16.7997 8.52608 15.7251 9.6006 14.3997 9.6006C14.1106 9.6006 13.8335 9.54951 13.5769 9.45586C13.9554 8.79019 14.1715 8.02019 14.1715 7.19971C14.1715 6.37983 13.9557 5.61036 13.5777 4.94503C13.8341 4.85158 14.1109 4.8006 14.3997 4.8006C15.7251 4.8006 16.7997 5.87511 16.7997 7.2006Z" fill="#8696A3"/>
</svg>
