<svg width="35" height="35" viewBox="0 0 35 35" fill="none" xmlns="http://www.w3.org/2000/svg">
<g clip-path="url(#clip0_7_315)">
<path d="M19.1902 1.81498L23.1377 9.81373C23.4122 10.37 23.943 10.7555 24.557 10.8446L33.3844 12.1273C34.9307 12.3522 35.5476 14.2519 34.4291 15.3419L28.0417 21.568C27.5978 22.0009 27.3948 22.6252 27.4999 23.2362L29.0076 32.0278C29.2718 33.5676 27.6555 34.7416 26.2727 34.0151L18.3776 29.8646C17.8286 29.5762 17.1722 29.5762 16.6232 29.8646L8.72814 34.0151C7.34537 34.7423 5.72898 33.5676 5.99327 32.0278L7.50088 23.2362C7.60601 22.6252 7.40305 22.0009 6.95916 21.568L0.571696 15.3419C-0.546786 14.2512 0.070131 12.3515 1.61644 12.1273L10.4438 10.8446C11.0578 10.7555 11.5886 10.37 11.8631 9.81373L15.8106 1.81498C16.5013 0.413958 18.4988 0.413958 19.1902 1.81498Z" fill="#FFCD00"/>
</g>
<defs>
<clipPath id="clip0_7_315">
<rect width="35" height="35" fill="white"/>
</clipPath>
</defs>
</svg>
