<svg width="24" height="24" viewBox="0 0 24 24" fill="none" xmlns="http://www.w3.org/2000/svg">
<path fill-rule="evenodd" clip-rule="evenodd" d="M13.303 18.7775L12.8693 19.5102C12.4828 20.1632 11.5172 20.1632 11.1306 19.5102L10.697 18.7775C10.3606 18.2092 10.1924 17.925 9.92223 17.7679C9.65207 17.6107 9.31194 17.6049 8.63166 17.5932C7.62737 17.5759 6.99751 17.5143 6.46927 17.2955C5.48915 16.8895 4.71046 16.1108 4.30448 15.1307C4 14.3956 4 13.4638 4 11.6V10.8C4 8.18126 4 6.87188 4.58944 5.91001C4.91926 5.37178 5.37178 4.91926 5.91001 4.58944C6.87188 4 8.18126 4 10.8 4H13.2C15.8187 4 17.1281 4 18.09 4.58944C18.6282 4.91926 19.0807 5.37178 19.4106 5.91001C20 6.87188 20 8.18126 20 10.8V11.6C20 13.4638 20 14.3956 19.6955 15.1307C19.2895 16.1108 18.5108 16.8895 17.5307 17.2955C17.0025 17.5143 16.3726 17.5759 15.3683 17.5932C14.688 17.6049 14.3479 17.6107 14.0777 17.7679C13.8076 17.925 13.6394 18.2092 13.303 18.7775ZM8.8 11.8C8.46863 11.8 8.2 12.0686 8.2 12.4C8.2 12.7314 8.46863 13 8.8 13H13.2C13.5314 13 13.8 12.7314 13.8 12.4C13.8 12.0686 13.5314 11.8 13.2 11.8H8.8ZM8.2 9.6C8.2 9.26863 8.46863 9 8.8 9H15.2C15.5314 9 15.8 9.26863 15.8 9.6C15.8 9.93137 15.5314 10.2 15.2 10.2H8.8C8.46863 10.2 8.2 9.93137 8.2 9.6Z" fill="#8696A3"/>
</svg>
