<svg width="24" height="24" viewBox="0 0 24 24" fill="none" xmlns="http://www.w3.org/2000/svg">
<path d="M4 12H20M15.2 12C15.2 13.0506 15.1172 14.0909 14.9564 15.0615C14.7956 16.0321 14.5599 16.914 14.2627 17.6569C13.9656 18.3997 13.6128 18.989 13.2246 19.391C12.8363 19.7931 12.4202 20 12 20C11.5798 20 11.1637 19.7931 10.7754 19.391C10.3872 18.989 10.0344 18.3997 9.73726 17.6569C9.44011 16.914 9.2044 16.0321 9.04359 15.0615C8.88277 14.0909 8.8 13.0506 8.8 12C8.8 10.9494 8.88277 9.90914 9.04359 8.93853C9.2044 7.96793 9.44011 7.08601 9.73726 6.34315C10.0344 5.60028 10.3872 5.011 10.7754 4.60896C11.1637 4.20693 11.5798 4 12 4C12.4202 4 12.8363 4.20693 13.2246 4.60896C13.6128 5.011 13.9656 5.60028 14.2627 6.34315C14.5599 7.08602 14.7956 7.96793 14.9564 8.93853C15.1172 9.90914 15.2 10.9494 15.2 12Z" stroke="#8696A3" stroke-width="1.6" stroke-linecap="round"/>
<path d="M20 12C20 13.0506 19.7931 14.0909 19.391 15.0615C18.989 16.0321 18.3997 16.914 17.6569 17.6569C16.914 18.3997 16.0321 18.989 15.0615 19.391C14.0909 19.7931 13.0506 20 12 20C10.9494 20 9.90914 19.7931 8.93853 19.391C7.96793 18.989 7.08601 18.3997 6.34315 17.6569C5.60028 16.914 5.011 16.0321 4.60896 15.0615C4.20693 14.0909 4 13.0506 4 12C4 10.9494 4.20693 9.90914 4.60896 8.93853C5.011 7.96793 5.60028 7.08601 6.34315 6.34315C7.08602 5.60028 7.96793 5.011 8.93853 4.60896C9.90914 4.20693 10.9494 4 12 4C13.0506 4 14.0909 4.20693 15.0615 4.60896C16.0321 5.011 16.914 5.60028 17.6569 6.34315C18.3997 7.08602 18.989 7.96793 19.391 8.93853C19.7931 9.90914 20 10.9494 20 12L20 12Z" stroke="#8696A3" stroke-width="1.6"/>
</svg>
