<svg width="54" height="49" viewBox="0 0 54 49" fill="none" xmlns="http://www.w3.org/2000/svg">
<path d="M9.74288 9.19834C9.41861 9.61213 9.41861 10.1982 9.41861 11.3702C9.41861 12.5423 9.41861 13.1283 9.74288 13.5421C9.8573 13.6881 9.9981 13.8156 10.1594 13.9192C10.6164 14.2128 11.2636 14.2128 12.5581 14.2128C13.8527 14.2128 14.4999 14.2128 14.9569 13.9192C15.1182 13.8156 15.259 13.6881 15.3734 13.5421C15.6977 13.1283 15.6977 12.5423 15.6977 11.3702C15.6977 10.1982 15.6977 9.61213 15.3734 9.19834C15.259 9.05234 15.1182 8.92485 14.9569 8.82126C14.4999 8.52766 13.8527 8.52766 12.5581 8.52766C11.2636 8.52766 10.6164 8.52766 10.1594 8.82126C9.9981 8.92485 9.8573 9.05234 9.74288 9.19834Z" fill="#2CBB1F"/>
<path fill-rule="evenodd" clip-rule="evenodd" d="M18.7221 0.0914365C19.8331 0.187082 20.8685 0.394616 21.8182 0.921535C22.7476 1.43718 23.529 2.14466 24.0985 2.98611C24.6804 3.84597 24.9097 4.78343 25.0153 5.78937C25.1164 6.7516 25.1163 7.9363 25.1163 9.3559L25.1163 12.057C25.1164 14.1001 25.1164 15.8039 24.9156 17.1565C24.7036 18.5841 24.2373 19.873 23.0933 20.9088C21.9493 21.9445 20.5257 22.3668 18.9489 22.5587C17.4551 22.7405 15.5733 22.7405 13.3167 22.7404L10.3336 22.7404C8.76569 22.7405 7.457 22.7405 6.39423 22.649C5.28319 22.5533 4.24779 22.3458 3.2981 21.8189C2.36872 21.3032 1.58733 20.5958 1.01782 19.7543C0.435844 18.8945 0.206628 17.957 0.10099 16.9511C-6.29602e-05 15.9888 -3.37332e-05 14.804 1.29834e-06 13.3843V13.2175C-2.23554e-05 11.0571 -4.14308e-05 9.31462 0.147254 7.912C0.299156 6.46551 0.620901 5.20524 1.38793 4.07197C2.16455 2.92453 3.23008 1.95979 4.4974 1.25664C5.74908 0.562167 7.14101 0.270858 8.73863 0.133324C10.2878 -3.75117e-05 12.2122 -2.02407e-05 14.5984 1.17552e-06H14.7827C16.3507 -3.05422e-05 17.6593 -5.70045e-05 18.7221 0.0914365ZM18.3655 3.48718C17.5022 3.41287 16.3738 3.41107 14.693 3.41107C12.1901 3.41107 10.4451 3.41287 9.09523 3.52907C7.77338 3.64287 7.02612 3.85421 6.46589 4.16505C5.70549 4.58694 5.06617 5.16578 4.6002 5.85425C4.25689 6.36149 4.02346 7.03806 3.89778 8.23487C3.76943 9.45707 3.76745 11.0369 3.76745 13.3031C3.76745 14.825 3.76943 15.8465 3.85152 16.6282C3.93094 17.3844 4.07183 17.7382 4.23009 17.972C4.48896 18.3545 4.84414 18.6761 5.26658 18.9105C5.52483 19.0538 5.91556 19.1813 6.75083 19.2532C7.61414 19.3276 8.74246 19.3294 10.4233 19.3294H13.1861C15.6073 19.3294 17.2337 19.3257 18.4469 19.1781C19.6059 19.037 20.102 18.7931 20.4293 18.4968C20.7566 18.2005 21.0259 17.7513 21.1817 16.7019C21.3448 15.6035 21.3488 14.1309 21.3488 11.9387V9.43728C21.3488 7.91547 21.3469 6.89388 21.2648 6.11224C21.1854 5.35598 21.0445 5.00221 20.8862 4.76839C20.6273 4.38591 20.2722 4.06433 19.8497 3.82994C19.5915 3.68666 19.2007 3.55909 18.3655 3.48718Z" fill="#2CBB1F"/>
<path d="M38.6266 9.19834C38.3023 9.61213 38.3023 10.1982 38.3023 11.3702C38.3023 12.5423 38.3023 13.1283 38.6266 13.5421C38.741 13.6881 38.8818 13.8156 39.0431 13.9192C39.5001 14.2128 40.1474 14.2128 41.4419 14.2128C42.7364 14.2128 43.3836 14.2128 43.8406 13.9192C44.0019 13.8156 44.1427 13.6881 44.2571 13.5421C44.5814 13.1283 44.5814 12.5423 44.5814 11.3702C44.5814 10.1982 44.5814 9.61213 44.2571 9.19834C44.1427 9.05234 44.0019 8.92485 43.8406 8.82126C43.3836 8.52766 42.7364 8.52766 41.4419 8.52766C40.1474 8.52766 39.5001 8.52766 39.0431 8.82126C38.8818 8.92485 38.741 9.05234 38.6266 9.19834Z" fill="#2CBB1F"/>
<path fill-rule="evenodd" clip-rule="evenodd" d="M39.2174 1.17552e-06H39.4015C41.7877 -2.02407e-05 43.7122 -3.75117e-05 45.2614 0.133324C46.859 0.270858 48.2509 0.562167 49.5026 1.25664C50.7699 1.95979 51.8355 2.92453 52.6121 4.07197C53.3791 5.20524 53.7009 6.46551 53.8528 7.912C54.0001 9.31463 54 11.057 54 13.2175V13.3843C54 14.804 54.0001 15.9888 53.899 16.9511C53.7934 17.957 53.5642 18.8945 52.9822 19.7543C52.4127 20.5958 51.6313 21.3032 50.7019 21.8189C49.7522 22.3458 48.7168 22.5533 47.6058 22.649C46.5431 22.7405 45.2347 22.7405 43.6669 22.7404L40.6834 22.7404C38.4268 22.7405 36.5449 22.7405 35.0511 22.5587C33.4743 22.3668 32.0507 21.9445 30.9067 20.9088C29.7628 19.873 29.2964 18.5841 29.0844 17.1565C28.8836 15.8039 28.8837 14.1002 28.8837 12.057V9.35612C28.8837 7.93643 28.8837 6.75165 28.9847 5.78937C29.0904 4.78343 29.3196 3.84597 29.9015 2.98611C30.4711 2.14466 31.2524 1.43718 32.1818 0.921535C33.1315 0.394616 34.1669 0.187082 35.278 0.0914365C36.3408 -5.70045e-05 37.6494 -3.05422e-05 39.2174 1.17552e-06ZM35.6346 3.48718C34.7993 3.55909 34.4086 3.68666 34.1503 3.82994C33.7279 4.06433 33.3727 4.38591 33.1138 4.76839C32.9556 5.00221 32.8147 5.35598 32.7352 6.11224C32.6532 6.89388 32.6512 7.91547 32.6512 9.43728V11.9387C32.6512 14.1309 32.6552 15.6035 32.8183 16.7019C32.9741 17.7513 33.2434 18.2005 33.5707 18.4968C33.898 18.7931 34.3941 19.037 35.5531 19.1781C36.7663 19.3257 38.3927 19.3294 40.814 19.3294H43.5768C45.2576 19.3294 46.3859 19.3276 47.2492 19.2532C48.0845 19.1813 48.4752 19.0538 48.7334 18.9105C49.1559 18.6761 49.5111 18.3545 49.7699 17.972C49.9282 17.7382 50.0691 17.3844 50.1485 16.6282C50.2306 15.8465 50.2326 14.825 50.2326 13.3031C50.2326 11.0369 50.2306 9.45707 50.1022 8.23487C49.9766 7.03806 49.7431 6.36149 49.3998 5.85425C48.9338 5.16578 48.2945 4.58694 47.5341 4.16505C46.9739 3.85421 46.2266 3.64287 44.9048 3.52907C43.5549 3.41287 41.81 3.41107 39.307 3.41107C37.6262 3.41107 36.4979 3.41287 35.6346 3.48718Z" fill="#2CBB1F"/>
<path d="M9.41861 37.5217C9.41861 36.3496 9.41861 35.7636 9.74288 35.3498C9.8573 35.2038 9.9981 35.0763 10.1594 34.9727C10.6164 34.6791 11.2636 34.6791 12.5581 34.6791C13.8527 34.6791 14.4999 34.6791 14.9569 34.9727C15.1182 35.0763 15.259 35.2038 15.3734 35.3498C15.6977 35.7636 15.6977 36.3496 15.6977 37.5217C15.6977 38.6937 15.6977 39.2798 15.3734 39.6936C15.259 39.8396 15.1182 39.9671 14.9569 40.0706C14.4999 40.3642 13.8527 40.3642 12.5581 40.3642C11.2636 40.3642 10.6164 40.3642 10.1594 40.0706C9.9981 39.9671 9.8573 39.8396 9.74288 39.6936C9.41861 39.2798 9.41861 38.6937 9.41861 37.5217Z" fill="#2CBB1F"/>
<path fill-rule="evenodd" clip-rule="evenodd" d="M18.9489 26.3332C20.5257 26.5251 21.9493 26.9474 23.0933 27.9831C24.2373 29.0189 24.7036 30.3078 24.9156 31.7354C25.1164 33.088 25.1164 34.7917 25.1163 36.8349L25.1163 39.5358C25.1163 40.9553 25.1164 42.1404 25.0153 43.1025C24.9097 44.1085 24.6804 45.0459 24.0985 45.9058C23.529 46.7473 22.7476 47.4547 21.8182 47.9704C20.8685 48.4973 19.8331 48.7048 18.7221 48.8005C17.6592 48.892 16.3507 48.8919 14.7827 48.8919H14.5984C12.2122 48.8919 10.2878 48.8919 8.73863 48.7586C7.14101 48.621 5.74908 48.3297 4.4974 47.6353C3.23008 46.9321 2.16455 45.9674 1.38793 44.8199C0.620901 43.6867 0.299156 42.4264 0.147254 40.9799C-4.14308e-05 39.5773 -2.23553e-05 37.8349 1.29834e-06 35.6744V35.5076C-3.37332e-05 34.0879 -6.29695e-05 32.9031 0.10099 31.9409C0.206628 30.9349 0.435844 29.9974 1.01782 29.1376C1.58733 28.2961 2.36872 27.5887 3.2981 27.073C4.24779 26.5461 5.28319 26.3386 6.39423 26.2429C7.45705 26.1514 8.76561 26.1515 10.3336 26.1515H13.3167C15.5733 26.1514 17.4551 26.1514 18.9489 26.3332ZM18.4469 29.7139C17.2337 29.5662 15.6073 29.5625 13.1861 29.5625H10.4233C8.74246 29.5625 7.61414 29.5643 6.75083 29.6387C5.91556 29.7106 5.52483 29.8381 5.26658 29.9814C4.84414 30.2158 4.48896 30.5374 4.23009 30.9199C4.07183 31.1537 3.93094 31.5075 3.85152 32.2637C3.76943 33.0454 3.76745 34.067 3.76745 35.5888C3.76745 37.855 3.76943 39.4348 3.89778 40.657C4.02346 41.8538 4.25689 42.5304 4.6002 43.0377C5.06617 43.7261 5.70549 44.305 6.46589 44.7269C7.02612 45.0377 7.77338 45.249 9.09523 45.3628C10.4451 45.479 12.1901 45.4808 14.693 45.4808C16.3738 45.4808 17.5022 45.479 18.3655 45.4047C19.2007 45.3328 19.5915 45.2052 19.8497 45.062C20.2722 44.8276 20.6273 44.506 20.8862 44.1235C21.0445 43.8897 21.1854 43.5359 21.2648 42.7797C21.3469 41.998 21.3488 40.9764 21.3488 39.4546V36.9532C21.3488 34.761 21.3448 33.2884 21.1817 32.19C21.0259 31.1406 20.7566 30.6915 20.4293 30.3951C20.102 30.0988 19.6059 29.8549 18.4469 29.7139Z" fill="#2CBB1F"/>
<path d="M39.4618 26.1515L44.5814 26.1515V29.5625H39.5582C37.7552 29.5625 36.5448 29.5646 35.622 29.6496C34.7307 29.7317 34.3189 29.8768 34.0465 30.0416C33.7037 30.249 33.4093 30.5155 33.1803 30.8259C32.9983 31.0725 32.838 31.4454 32.7473 32.2523C32.6535 33.0878 32.6512 34.1838 32.6512 35.8162H28.8837L28.8837 35.729C28.8837 34.2063 28.8837 32.9357 28.9992 31.9071C29.1202 30.8304 29.3832 29.8313 30.0478 28.9308C30.5517 28.2479 31.1992 27.6617 31.9534 27.2054C32.948 26.6037 34.0515 26.3656 35.2407 26.2561C36.3768 26.1514 37.7801 26.1514 39.4618 26.1515Z" fill="#2CBB1F"/>
<path d="M28.8837 47.1864V40.3642H32.6512V47.1864C32.6512 48.1283 31.8078 48.8919 30.7675 48.8919C29.7271 48.8919 28.8837 48.1283 28.8837 47.1864Z" fill="#2CBB1F"/>
<path d="M54 27.857C54 26.9151 53.1566 26.1515 52.1163 26.1515C51.0759 26.1515 50.2326 26.9151 50.2326 27.857V35.8162H54V27.857Z" fill="#2CBB1F"/>
<path d="M50.2326 40.3642C50.2326 41.4472 50.2316 42.1739 50.1891 42.7367C50.1479 43.2841 50.0739 43.5506 49.9936 43.7261C49.6749 44.4226 49.0638 44.976 48.2945 45.2645C48.1007 45.3371 47.8063 45.4042 47.2017 45.4415C46.5801 45.4799 45.7774 45.4808 44.5814 45.4808H39.5582V48.8919H44.6448C45.7611 48.8919 46.6931 48.8919 47.4581 48.8447C48.2546 48.7955 49.0069 48.6894 49.7362 48.4159C51.4286 47.7812 52.7732 46.5638 53.4742 45.0314C53.7764 44.3711 53.8935 43.69 53.9478 42.9689C54 42.2762 54 41.4325 54 40.4219V40.3642H50.2326Z" fill="#2CBB1F"/>
<path d="M37.4698 34.5528C37.0465 35.1263 37.0465 35.9248 37.0465 37.5217C37.0465 39.1186 37.0465 39.9171 37.4698 40.4906C37.6531 40.7389 37.8885 40.9521 38.1628 41.118C38.7963 41.5013 39.6781 41.5013 41.4419 41.5013C43.2056 41.5013 44.0875 41.5013 44.721 41.118C44.9952 40.9521 45.2307 40.7389 45.4139 40.4906C45.8372 39.9171 45.8372 39.1186 45.8372 37.5217C45.8372 35.9248 45.8372 35.1263 45.4139 34.5528C45.2307 34.3045 44.9952 34.0913 44.721 33.9254C44.0875 33.5421 43.2056 33.5421 41.4419 33.5421C39.6781 33.5421 38.7963 33.5421 38.1628 33.9254C37.8885 34.0913 37.6531 34.3045 37.4698 34.5528Z" fill="#2CBB1F"/>
</svg>
