<svg width="24" height="24" viewBox="0 0 24 24" fill="none" xmlns="http://www.w3.org/2000/svg">
<path d="M7.55544 5.34822C7.97692 5.06659 8.42212 4.82704 8.88462 4.6315C10.0069 4.15699 10.5681 3.91973 11.2841 4.39435C12 4.86896 12 5.64596 12 7.19997V8.79997C12 10.3085 12 11.0627 12.4686 11.5313C12.9373 12 13.6915 12 15.2 12H16.8C18.354 12 19.131 12 19.6056 12.7159C20.0802 13.4319 19.843 13.993 19.3685 15.1154C19.1729 15.5778 18.9334 16.0231 18.6518 16.4445C17.7727 17.7601 16.5233 18.7855 15.0615 19.391C13.5997 19.9965 11.9911 20.1549 10.4393 19.8463C8.88743 19.5376 7.46197 18.7756 6.34315 17.6568C5.22433 16.538 4.4624 15.1125 4.15372 13.5607C3.84504 12.0088 4.00347 10.4003 4.60897 8.9385C5.21447 7.4767 6.23985 6.22727 7.55544 5.34822Z" fill="#8696A3"/>
<path fill-rule="evenodd" clip-rule="evenodd" d="M13.419 4.10251C13.5016 3.78159 13.8287 3.5884 14.1496 3.671C17.1725 4.44904 19.551 6.82755 20.3291 9.85047C20.4117 10.1714 20.2185 10.4985 19.8976 10.5811C19.5767 10.6637 19.2495 10.4705 19.167 10.1496C18.4979 7.55007 16.45 5.50219 13.8505 4.83312C13.5296 4.75053 13.3364 4.42342 13.419 4.10251Z" fill="#8696A3"/>
</svg>
