<svg width="33" height="33" viewBox="0 0 33 33" fill="none" xmlns="http://www.w3.org/2000/svg">
<path d="M29.2187 16.5C29.2187 9.47561 23.5243 3.78124 16.5 3.78124C9.47561 3.78124 3.78124 9.47561 3.78124 16.5C3.78124 23.5243 9.47561 29.2187 16.5 29.2187C23.5243 29.2187 29.2187 23.5243 29.2187 16.5Z" stroke="#9D9D9D" stroke-width="2.04592"/>
<path d="M14.8097 13.927L18.5572 12.71C19.6254 12.3631 20.6366 13.3741 20.2896 14.4425L19.0727 18.1899C18.9367 18.6087 18.6084 18.937 18.1895 19.073L14.4421 20.29C13.3737 20.637 12.3627 19.6259 12.7096 18.5575L13.9266 14.81C14.0626 14.3913 14.391 14.063 14.8097 13.927Z" stroke="#9D9D9D" stroke-width="2.04592"/>
</svg>
